<?xml version="1.0" standalone="no"?>
<!DOCTYPE svg PUBLIC "-//W3C//DTD SVG 20010904//EN"
 "http://www.w3.org/TR/2001/REC-SVG-20010904/DTD/svg10.dtd">
<svg version="1.0" xmlns="http://www.w3.org/2000/svg"
 width="500.000000pt" height="500.000000pt" viewBox="0 0 500.000000 500.000000"
 preserveAspectRatio="xMidYMid meet">
<metadata>
Created by potrace 1.11, written by Peter Selinger 2001-2013
</metadata>
<g transform="translate(0.000000,500.000000) scale(0.100000,-0.100000)"
fill="#000000" stroke="none">
<path d="M2432 4408 c-72 -12 -146 -52 -205 -110 -63 -63 -101 -130 -122 -220
-25 -105 -21 -146 41 -443 2 -11 7 -35 10 -53 3 -19 28 -98 55 -175 66 -187
106 -347 124 -497 4 -30 9 -64 11 -75 2 -11 6 -82 9 -158 5 -157 4 -160 -66
-128 -24 11 -87 36 -139 56 -52 20 -112 47 -132 60 -21 14 -42 25 -48 25 -5 0
-10 5 -10 10 0 6 -7 10 -15 10 -8 0 -15 5 -15 10 0 6 -4 10 -9 10 -5 0 -47 23
-93 52 -46 28 -93 56 -105 62 -13 6 -23 14 -23 19 0 4 -5 7 -11 7 -6 0 -51 27
-100 60 -49 33 -93 60 -98 60 -5 0 -11 4 -13 9 -7 19 -264 159 -333 181 -22 7
-45 17 -51 22 -7 5 -16 8 -20 7 -5 -1 -11 0 -14 1 -5 2 -17 5 -60 15 -65 15
-211 5 -237 -17 -7 -6 -13 -7 -13 -4 0 4 -21 -5 -47 -20 -67 -38 -131 -107
-162 -173 -23 -50 -26 -67 -26 -171 1 -103 3 -121 27 -173 27 -58 133 -172
150 -161 4 3 8 2 8 -3 0 -9 36 -27 105 -53 83 -30 132 -39 261 -44 45 -2 87
-7 93 -10 6 -4 11 -2 11 4 0 6 5 8 13 3 13 -8 23 -9 262 -17 88 -3 210 -9 270
-12 61 -4 118 -7 128 -8 9 0 17 -3 17 -6 0 -3 17 -6 38 -6 53 -2 114 -10 137
-17 18 -6 69 -15 103 -19 6 -1 12 -5 12 -10 0 -5 4 -7 8 -4 14 8 112 -25 112
-38 0 -19 -99 -143 -176 -221 -85 -85 -145 -140 -244 -224 -106 -90 -104 -87
-225 -179 -144 -109 -181 -141 -283 -242 -153 -152 -197 -246 -197 -415 1 -91
3 -106 32 -166 32 -68 120 -169 148 -169 8 0 15 -4 15 -10 0 -5 8 -10 18 -10
10 0 22 -4 28 -9 14 -14 148 -30 174 -21 3 1 15 3 28 6 12 2 32 6 45 8 12 3
23 5 25 7 1 1 5 2 10 3 4 1 32 15 63 33 75 42 157 123 216 215 15 24 30 45 33
48 19 18 52 109 185 500 42 124 86 248 98 275 57 132 190 365 209 365 4 0 8 5
8 11 0 6 7 17 14 25 13 13 20 7 54 -44 77 -113 175 -316 262 -542 47 -123 214
-526 242 -585 36 -76 113 -185 158 -223 33 -28 102 -74 113 -76 7 -1 17 -4 22
-8 15 -9 76 -21 110 -23 17 -1 36 -4 43 -9 7 -4 12 -3 12 2 0 5 12 8 26 6 33
-3 123 23 141 42 8 8 20 14 26 14 13 0 21 8 77 80 61 78 85 135 93 225 5 51
-9 157 -29 217 -17 51 -76 146 -120 193 -57 60 -323 282 -413 345 -19 13 -47
37 -63 53 -15 17 -28 27 -28 23 0 -3 -9 2 -19 12 -36 32 -66 58 -167 140 -107
87 -367 375 -306 339 4 -3 18 0 32 6 28 11 36 14 65 21 11 2 31 9 45 14 14 5
28 10 33 10 9 0 86 13 112 19 11 2 46 5 77 8 31 2 61 6 67 9 5 4 12 2 16 -4 4
-6 11 -8 16 -5 18 12 49 14 54 4 4 -5 12 -6 18 -2 7 4 55 8 107 9 304 6 559
15 582 19 16 3 40 7 55 9 42 7 86 16 108 23 11 4 22 8 25 8 3 1 19 7 35 14 76
31 105 45 105 53 0 4 6 8 13 8 8 0 41 25 75 55 43 39 71 76 94 123 30 60 33
75 33 157 0 84 -3 96 -34 158 -53 105 -152 194 -236 213 -82 19 -167 22 -250
9 -27 -4 -60 -8 -72 -9 -13 0 -23 -4 -23 -7 0 -4 -15 -10 -33 -13 -38 -7 -240
-108 -263 -131 -9 -8 -19 -15 -24 -15 -5 0 -15 -6 -22 -12 -7 -7 -36 -29 -63
-47 -28 -19 -52 -38 -55 -41 -3 -3 -54 -37 -113 -75 -60 -39 -119 -77 -132
-85 -12 -8 -44 -28 -71 -45 -27 -16 -50 -33 -52 -37 -2 -4 -7 -8 -11 -8 -5 0
-48 -19 -97 -42 -49 -23 -91 -43 -94 -43 -3 -1 -16 -6 -30 -12 -14 -6 -43 -16
-65 -24 -22 -8 -42 -17 -45 -20 -3 -3 -12 -6 -20 -7 -8 0 -26 -4 -39 -8 -22
-7 -23 -5 -17 37 3 24 8 78 11 119 9 114 11 128 71 370 31 124 57 232 59 240
2 8 23 96 48 195 48 193 79 362 83 462 4 108 -41 230 -117 317 -45 51 -123
109 -133 99 -3 -4 -6 -2 -6 4 0 6 -17 14 -37 18 -21 5 -45 10 -53 12 -33 8
-87 9 -128 1z"/>
</g>
</svg>
